<?xml version="1.0"?>
<svg version="1.1" xmlns="http://www.w3.org/2000/svg" width="203px" height="36px" style="border: dashed 2px #aaa"><path fill="#325cc7" d="M39.77099609375,29.392578125l-2.82958984375,0l0-6.05810546875q0-1.12255859375-0.375732421875-1.683837890625t-1.182861328125-0.561279296875q-1.08544921875,0-1.5771484375,0.7978515625t-0.49169921875,2.62548828125l0,4.8798828125l-2.82958984375,0l0-10.3720703125l2.16162109375,0l0.38037109375,1.32666015625l0.15771484375,0q0.41748046875-0.71435546875,1.2060546875-1.117919921875t1.80908203125-0.403564453125q2.32861328125,0,3.154296875,1.521484375l0.25048828125,0q0.41748046875-0.7236328125,1.229248046875-1.12255859375t1.832275390625-0.39892578125q1.7626953125,0,2.667236328125,0.904541015625t0.904541015625,2.899169921875l0,6.76318359375l-2.8388671875,0l0-6.05810546875q0-1.12255859375-0.375732421875-1.683837890625t-1.182861328125-0.561279296875q-1.0390625,0-1.553955078125,0.7421875t-0.514892578125,2.3564453125l0,5.20458984375z M57.033999023437,29.392578125l-0.54736328125-1.41015625l-0.07421875,0q-0.71435546875,0.89990234375-1.470458984375,1.247802734375t-1.971435546875,0.347900390625q-1.49365234375,0-2.351806640625-0.853515625t-0.858154296875-2.4306640625q0-1.6513671875,1.155029296875-2.435302734375t3.483642578125-0.867431640625l1.7998046875-0.0556640625l0-0.45458984375q0-1.5771484375-1.6142578125-1.5771484375q-1.2431640625,0-2.92236328125,0.75146484375l-0.93701171875-1.9111328125q1.79052734375-0.93701171875,3.970703125-0.93701171875q2.08740234375,0,3.20068359375,0.9091796875t1.11328125,2.7646484375l0,6.91162109375l-1.97607421875,0z M56.199038085937,24.5869140625l-1.0947265625,0.037109375q-1.23388671875,0.037109375-1.8369140625,0.4453125t-0.60302734375,1.2431640625q0,1.19677734375,1.373046875,1.19677734375q0.9833984375,0,1.572509765625-0.56591796875t0.589111328125-1.5029296875l0-0.853515625z M70.465458984375,26.3125q0,1.595703125-1.108642578125,2.4306640625t-3.316650390625,0.8349609375q-1.1318359375,0-1.9296875-0.153076171875t-1.49365234375-0.449951171875l0-2.337890625q0.78857421875,0.37109375,1.776611328125,0.62158203125t1.739501953125,0.25048828125q1.5400390625,0,1.5400390625-0.890625q0-0.333984375-0.2041015625-0.542724609375t-0.705078125-0.47314453125t-1.3359375-0.616943359375q-1.19677734375-0.5009765625-1.758056640625-0.927734375t-0.81640625-0.978759765625t-0.255126953125-1.359130859375q0-1.38232421875,1.071533203125-2.138427734375t3.038330078125-0.756103515625q1.8740234375,0,3.64599609375,0.81640625l-0.853515625,2.041015625q-0.779296875-0.333984375-1.45654296875-0.54736328125t-1.38232421875-0.21337890625q-1.25244140625,0-1.25244140625,0.67724609375q0,0.38037109375,0.403564453125,0.65869140625t1.767333984375,0.82568359375q1.21533203125,0.49169921875,1.78125,0.91845703125t0.8349609375,0.9833984375t0.26904296875,1.32666015625z M78.349067382812,27.32373046875q0.7421875,0,1.78125-0.32470703125l0,2.10595703125q-1.0576171875,0.47314453125-2.59765625,0.47314453125q-1.69775390625,0-2.472412109375-0.858154296875t-0.774658203125-2.574462890625l0-5.00048828125l-1.3544921875,0l0-1.19677734375l1.55859375-0.9462890625l0.81640625-2.189453125l1.80908203125,0l0,2.2080078125l2.90380859375,0l0,2.12451171875l-2.90380859375,0l0,5.00048828125q0,0.60302734375,0.338623046875,0.890625t0.895263671875,0.28759765625z M85.78736328125,24.18798828125q0,1.5400390625,0.505615234375,2.32861328125t1.646728515625,0.78857421875q1.1318359375,0,1.628173828125-0.783935546875t0.496337890625-2.333251953125q0-1.5400390625-0.5009765625-2.31005859375t-1.64208984375-0.77001953125q-1.1318359375,0-1.6328125,0.765380859375t-0.5009765625,2.314697265625z M92.95875,24.18798828125q0,2.53271484375-1.3359375,3.96142578125t-3.72021484375,1.4287109375q-1.49365234375,0-2.634765625-0.654052734375t-1.75341796875-1.878662109375t-0.6123046875-2.857421875q0-2.5419921875,1.32666015625-3.9521484375t3.7294921875-1.41015625q1.49365234375,0,2.634765625,0.6494140625t1.75341796875,1.86474609375t0.6123046875,2.84814453125z M99.886791992187,29.578125q-1.82763671875,0-2.871337890625-1.41943359375t-1.043701171875-3.93359375q0-2.55126953125,1.062255859375-3.975341796875t2.927001953125-1.424072265625q1.95751953125,0,2.9873046875,1.521484375l0.0927734375,0q-0.21337890625-1.15966796875-0.21337890625-2.06884765625l0-3.3212890625l2.8388671875,0l0,14.435546875l-2.1708984375,0l-0.54736328125-1.34521484375l-0.12060546875,0q-0.96484375,1.53076171875-2.94091796875,1.53076171875z M100.87946777344,27.32373046875q1.08544921875,0,1.591064453125-0.630859375t0.552001953125-2.14306640625l0-0.30615234375q0-1.669921875-0.514892578125-2.3935546875t-1.674560546875-0.7236328125q-0.9462890625,0-1.470458984375,0.802490234375t-0.524169921875,2.333251953125t0.52880859375,2.296142578125t1.51220703125,0.765380859375z M112.18641601562,24.18798828125q0,1.5400390625,0.505615234375,2.32861328125t1.646728515625,0.78857421875q1.1318359375,0,1.628173828125-0.783935546875t0.496337890625-2.333251953125q0-1.5400390625-0.5009765625-2.31005859375t-1.64208984375-0.77001953125q-1.1318359375,0-1.6328125,0.765380859375t-0.5009765625,2.314697265625z M119.35780273437,24.18798828125q0,2.53271484375-1.3359375,3.96142578125t-3.72021484375,1.4287109375q-1.49365234375,0-2.634765625-0.654052734375t-1.75341796875-1.878662109375t-0.6123046875-2.857421875q0-2.5419921875,1.32666015625-3.9521484375t3.7294921875-1.41015625q1.49365234375,0,2.634765625,0.6494140625t1.75341796875,1.86474609375t0.6123046875,2.84814453125z M132.57588378906,29.392578125l-2.82958984375,0l0-6.05810546875q0-1.12255859375-0.39892578125-1.683837890625t-1.27099609375-0.561279296875q-1.1875,0-1.71630859375,0.793212890625t-0.52880859375,2.630126953125l0,4.8798828125l-2.82958984375,0l0-10.3720703125l2.16162109375,0l0.38037109375,1.32666015625l0.15771484375,0q0.47314453125-0.75146484375,1.303466796875-1.136474609375t1.887939453125-0.385009765625q1.80908203125,0,2.74609375,0.978759765625t0.93701171875,2.824951171875l0,6.76318359375z M136.396015625,28.06591796875q0-0.779296875,0.41748046875-1.17822265625t1.21533203125-0.39892578125q0.77001953125,0,1.192138671875,0.408203125t0.422119140625,1.1689453125q0,0.73291015625-0.4267578125,1.155029296875t-1.1875,0.422119140625q-0.779296875,0-1.2060546875-0.412841796875t-0.4267578125-1.164306640625z M150.75520996094,26.3125q0,1.595703125-1.108642578125,2.4306640625t-3.316650390625,0.8349609375q-1.1318359375,0-1.9296875-0.153076171875t-1.49365234375-0.449951171875l0-2.337890625q0.78857421875,0.37109375,1.776611328125,0.62158203125t1.739501953125,0.25048828125q1.5400390625,0,1.5400390625-0.890625q0-0.333984375-0.2041015625-0.542724609375t-0.705078125-0.47314453125t-1.3359375-0.616943359375q-1.19677734375-0.5009765625-1.758056640625-0.927734375t-0.81640625-0.978759765625t-0.255126953125-1.359130859375q0-1.38232421875,1.071533203125-2.138427734375t3.038330078125-0.756103515625q1.8740234375,0,3.64599609375,0.81640625l-0.853515625,2.041015625q-0.779296875-0.333984375-1.45654296875-0.54736328125t-1.38232421875-0.21337890625q-1.25244140625,0-1.25244140625,0.67724609375q0,0.38037109375,0.403564453125,0.65869140625t1.767333984375,0.82568359375q1.21533203125,0.49169921875,1.78125,0.91845703125t0.8349609375,0.9833984375t0.26904296875,1.32666015625z M154.14858398438,16.33935546875q0-1.38232421875,1.5400390625-1.38232421875t1.5400390625,1.38232421875q0,0.65869140625-0.385009765625,1.025146484375t-1.155029296875,0.366455078125q-1.5400390625,0-1.5400390625-1.3916015625z M157.09877929688,29.392578125l-2.82958984375,0l0-10.3720703125l2.82958984375,0l0,10.3720703125z M165.74312988281,27.32373046875q0.7421875,0,1.78125-0.32470703125l0,2.10595703125q-1.0576171875,0.47314453125-2.59765625,0.47314453125q-1.69775390625,0-2.472412109375-0.858154296875t-0.774658203125-2.574462890625l0-5.00048828125l-1.3544921875,0l0-1.19677734375l1.55859375-0.9462890625l0.81640625-2.189453125l1.80908203125,0l0,2.2080078125l2.90380859375,0l0,2.12451171875l-2.90380859375,0l0,5.00048828125q0,0.60302734375,0.338623046875,0.890625t0.895263671875,0.28759765625z M175.22244140625,20.8388671875q-0.89990234375,0-1.41015625,0.570556640625t-0.58447265625,1.618896484375l3.970703125,0q-0.0185546875-1.04833984375-0.54736328125-1.618896484375t-1.4287109375-0.570556640625z M175.6213671875,29.578125q-2.5048828125,0-3.9150390625-1.38232421875t-1.41015625-3.9150390625q0-2.60693359375,1.303466796875-4.031005859375t3.604248046875-1.424072265625q2.19873046875,0,3.42333984375,1.25244140625t1.224609375,3.46044921875l0,1.373046875l-6.68896484375,0q0.04638671875,1.2060546875,0.71435546875,1.88330078125t1.8740234375,0.67724609375q0.93701171875,0,1.77197265625-0.19482421875t1.744140625-0.62158203125l0,2.189453125q-0.7421875,0.37109375-1.58642578125,0.552001953125t-2.0595703125,0.180908203125z"/><path fill="#" d=""/></svg>
